<svg width="40" height="40" viewBox="0 0 40 40" fill="none" xmlns="http://www.w3.org/2000/svg">
<mask id="mask0_597_222" style="mask-type:alpha" maskUnits="userSpaceOnUse" x="0" y="0" width="40" height="40">
<rect width="40" height="40" fill="#D9D9D9"/>
</mask>
<g mask="url(#mask0_597_222)">
<path d="M27.1668 13.1111V7.77775H12.8335V13.1111H10.0557V5H29.9446V13.1111H27.1668ZM30.528 19.9166C30.9076 19.9166 31.234 19.7801 31.5071 19.5069C31.7803 19.2338 31.9168 18.9074 31.9168 18.5278C31.9168 18.1481 31.7803 17.8218 31.5071 17.5486C31.234 17.2754 30.9076 17.1389 30.528 17.1389C30.1483 17.1389 29.8219 17.2754 29.5488 17.5486C29.2757 17.8218 29.1391 18.1481 29.1391 18.5278C29.1391 18.9074 29.2757 19.2338 29.5488 19.5069C29.8219 19.7801 30.1483 19.9166 30.528 19.9166ZM27.1668 32.2222V24.6667H12.8335V32.2222H27.1668ZM29.9446 35H10.0557V27.8889H3.3335V17.7222C3.3335 16.4157 3.77794 15.3206 4.66683 14.4368C5.55572 13.553 6.6483 13.1111 7.94458 13.1111H32.0557C33.3622 13.1111 34.4573 13.553 35.3411 14.4368C36.2249 15.3206 36.6668 16.4157 36.6668 17.7222V27.8889H29.9446V35ZM33.8891 25.1111V17.7163C33.8891 17.1924 33.7134 16.7569 33.362 16.4097C33.0106 16.0625 32.5752 15.8889 32.0557 15.8889H7.94458C7.42514 15.8889 6.98972 16.0646 6.63833 16.416C6.28694 16.7673 6.11125 17.2028 6.11125 17.7222V25.1111H10.0557V21.8889H29.9446V25.1111H33.8891Z" fill="black"/>
</g>
</svg>
