<svg width="46" height="43" viewBox="0 0 46 43" fill="none" xmlns="http://www.w3.org/2000/svg">
<path d="M34.5528 0.302979H11.6378C7.7438 0.302979 4.58707 3.44035 4.58707 7.3105V30.5229C4.58707 34.3931 7.7438 37.5304 11.6378 37.5304H34.5528C38.4468 37.5304 41.6036 34.3931 41.6036 30.5229V7.3105C41.6036 3.44035 38.4468 0.302979 34.5528 0.302979Z" fill="#EBEBED" stroke="#CACACC" stroke-width="0.5" stroke-miterlimit="10"/>
<path d="M45.1818 10.8405C45.1818 8.8764 43.5798 7.28418 41.6036 7.28418C39.6273 7.28418 38.0253 8.8764 38.0253 10.8405V34.412C38.0253 36.3761 39.6273 37.9684 41.6036 37.9684C43.5798 37.9684 45.1818 36.3761 45.1818 34.412V10.8405Z" fill="#EBEBED" stroke="#CACACC" stroke-width="0.5" stroke-miterlimit="10"/>
<path d="M8.15652 10.8405C8.15652 8.8764 6.55448 7.28418 4.57826 7.28418C2.60204 7.28418 1 8.8764 1 10.8405V34.412C1 36.3761 2.60204 37.9684 4.57826 37.9684C6.55448 37.9684 8.15652 36.3761 8.15652 34.412V10.8405Z" fill="#EBEBED" stroke="#CACACC" stroke-width="0.5" stroke-miterlimit="10"/>
<path d="M39.1446 30.1199H7.04603C3.71177 30.1199 1.00882 32.8063 1.00882 36.1201C1.00882 39.4339 3.71177 42.1203 7.04603 42.1203H39.1446C42.4789 42.1203 45.1818 39.4339 45.1818 36.1201C45.1818 32.8063 42.4789 30.1199 39.1446 30.1199Z" fill="#EBEBED" stroke="#CACACC" stroke-width="0.5" stroke-miterlimit="10"/>
</svg>
